<?xml version="1.0" encoding="utf-8"?>
<!-- Generator: Adobe Illustrator 19.0.0, SVG Export Plug-In . SVG Version: 6.00 Build 0)  -->
<svg version="1.1" id="Layer_1" xmlns="http://www.w3.org/2000/svg" xmlns:xlink="http://www.w3.org/1999/xlink" x="0px" y="0px"
	 viewBox="0 0 280 60" style="enable-background:new 0 0 280 60;" xml:space="preserve">
<style type="text/css">
	.st0{fill:#204881;}
	.st1{fill:#FFFFFF;}
	.st2{font-family:'Raleway-Bold';}
	.st3{font-size:24px;}
</style>
<rect id="XMLID_1_" x="1" y="0.5" class="st0" width="280" height="60.5"/>
<g id="XMLID_4_">
	<g id="XMLID_70_">
		<path id="XMLID_71_" class="st1" d="M62.6,15l-0.2-0.5l-0.7-0.2L28.8,2L5,34.4l23.6,19.4l10.7,5.1l0.4,0.4l25.5-37L62.6,15z
			 M6.7,34L29.2,3.4L61,15.2L39.6,45.1l-4.6-4.7l-1-1.1l10.7-14l2.1-2.8l1.6-2.1l-8.9-3.5l-6.3-2.5l-0.6-0.2l-0.5,0.7l-6.6,8.6
			L15.1,36.9l-6.8-2.3L6.7,34z M43.5,24.8L33.1,38.4l-4.5-4.6l8.9-11.6L43.5,24.8z M34.7,16.7L34.3,16l10.3,4.1l1.9,0.8L45,22.8
			l-0.8,1.1L37.7,21L34.7,16.7z M29.2,52.8L8.6,35.9l6.4,2.2L36,56L29.2,52.8z M39.5,57.5l-23.4-20l1.1-1.4l15.6-20.3l2.9,4.2l1,1.4
			L27,33.9l5.3,5.5l7.3,7.5l22.1-30.7l2.2,5.9L39.5,57.5z"/>
	</g>
</g>
<text id="XMLID_3_" transform="matrix(1 0 0 1 82.0303 37.7559)" class="st1 st2 st3">LAN HELPDESK</text>
</svg>
